<svg width="21" height="16" viewBox="0 0 21 16" fill="none" xmlns="http://www.w3.org/2000/svg">
<path d="M11.6109 10.6736C11.9584 11.0472 12.1559 11.4083 12.1892 11.9548C12.201 12.8665 11.923 13.5557 11.3736 14.2231C10.4801 15.2542 9.20213 15.9783 7.91504 15.9993C7.10074 16.0022 7.10074 16.0022 6.70328 15.818C6.66888 15.803 6.63448 15.7881 6.59903 15.7727C6.14959 15.5501 5.80757 15.1538 5.61798 14.6432C5.47902 14.0904 5.50973 13.4156 5.73264 12.9015C6.13932 12.1124 6.6304 11.5287 7.29527 11.0069C7.33915 10.9723 7.38303 10.9376 7.42824 10.902C8.55622 10.0857 10.485 9.62207 11.6109 10.6736ZM7.20894 5.33564C7.2825 5.33446 7.2825 5.33446 7.35755 5.33325C7.98133 5.33789 8.46337 5.52511 8.91765 6.01679C9.19683 6.36252 9.24019 6.68839 9.23118 7.1492C9.19732 7.6179 8.98662 7.91434 8.72591 8.26566C8.7006 8.30316 8.67529 8.34066 8.64921 8.37929C8.39818 8.7362 8.07591 8.97516 7.73926 9.21669C7.68578 9.25549 7.6323 9.29429 7.5772 9.33426C6.58048 10.019 5.2672 10.4912 4.09793 10.2411C3.73095 10.1294 3.39919 9.93892 3.15137 9.60829L3.04345 9.47193C2.82373 9.11966 2.81805 8.74006 2.85537 8.3216C2.98093 7.7658 3.26628 7.31146 3.65317 6.95143C3.75134 6.86272 3.75134 6.86272 3.86052 6.73072C3.94068 6.64331 3.94068 6.64331 4.03935 6.64331V6.53142C4.90931 5.70928 6.10134 5.34862 7.20894 5.33564Z" fill="#295791"/>
<path d="M17.2857 7.65724C17.4317 7.80972 17.4317 7.80972 17.5453 7.96219L17.6783 8.1299C18.0473 8.67735 18.0652 9.23996 18.0124 9.91382C17.9326 10.5096 17.574 10.9679 17.1902 11.3432C16.7361 11.7292 16.1824 11.946 15.6248 11.9874C15.5867 11.9906 15.5485 11.9939 15.5092 11.9972C14.787 12.029 14.1254 11.7836 13.581 11.2289C13.1855 10.7867 12.9772 10.3174 12.9582 9.66986C12.9787 9.05257 13.1809 8.6267 13.4967 8.14515L13.5908 7.98125C14.5513 6.78809 16.1795 6.71832 17.2857 7.65724ZM6.25133 1.78639C6.45885 1.9799 6.52779 2.17548 6.56418 2.48085C6.51426 3.00038 6.18215 3.35382 5.85738 3.68132C5.09349 4.37875 4.18117 4.79867 3.27148 5.15672C3.23664 5.17067 3.20181 5.18463 3.16592 5.19901C2.71552 5.37367 2.28954 5.42419 1.81814 5.43117C1.76791 5.4323 1.71768 5.43344 1.66593 5.43461C1.31201 5.43089 1.01442 5.3607 0.75107 5.06629C0.550797 4.79673 0.49422 4.56141 0.500455 4.21259C0.580842 3.5972 1.05304 3.13525 1.45481 2.77817C2.65425 1.77722 4.89635 0.702193 6.25133 1.78639ZM14.6905 3.57102C14.9987 3.8891 15.1231 4.26284 15.1804 4.73361C15.1134 5.26223 14.8365 5.57781 14.4829 5.88858C13.6822 6.51708 12.4799 6.57291 11.5568 6.37268C10.9004 6.17804 10.3674 5.81865 9.96718 5.17197C9.87599 4.82374 9.84876 4.44717 9.96089 4.1011C10.2467 3.53252 10.6835 3.13577 11.2096 2.91921C11.2701 2.89381 11.3305 2.86842 11.3927 2.84226C12.523 2.44752 13.7548 2.76475 14.6905 3.57102Z" fill="#295791"/>
<path d="M9.81924 0.00095567C9.85134 0.00133507 9.88345 0.00171447 9.91653 0.00210537C10.6526 0.0122954 11.3919 0.143643 11.9873 0.836297C12.1256 1.04012 12.1688 1.15556 12.1897 1.44367C12.0619 1.90559 11.7796 2.08285 11.4756 2.2742C10.8298 2.60554 10.1466 2.65585 9.46662 2.66377C9.41424 2.66473 9.36186 2.66568 9.30789 2.66667C8.69477 2.66154 8.09944 2.46398 7.63596 1.84743C7.54073 1.67107 7.52504 1.52768 7.51392 1.30668C7.61071 0.908116 7.80448 0.695435 8.05969 0.501839C8.18043 0.428026 8.3021 0.368793 8.42656 0.309192C8.47423 0.28581 8.5219 0.262428 8.57101 0.238337C8.99361 0.0461487 9.37758 -0.00815485 9.81924 0.00095567Z" fill="#295791"/>
<path d="M19.0421 5.4634C19.2623 5.64472 19.4249 5.8457 19.5965 6.13107C19.6308 6.18501 19.6651 6.23895 19.7004 6.29453C20.0461 6.86458 20.3568 7.54454 20.3721 8.36877C20.359 8.70069 20.3122 8.8661 20.1713 9.11219C20.0062 9.30869 19.8424 9.34775 19.6393 9.32907C19.3949 9.25167 19.173 9.11259 18.9549 8.92082V8.78473C18.917 8.77539 18.917 8.77539 18.8784 8.76586C18.6988 8.67248 18.5992 8.40043 18.4844 8.17235C18.4607 8.12525 18.437 8.07815 18.4125 8.02962C18.1128 7.41404 18.0291 6.88402 18.0344 6.10582C18.0578 5.84561 18.0807 5.74139 18.1956 5.55696C18.4606 5.27006 18.7504 5.28207 19.0421 5.4634Z" fill="#295791"/>
<path d="M16.6463 2.86283C16.9664 3.0814 17.2378 3.3693 17.5038 3.73015C17.5272 3.75947 17.5506 3.78879 17.5747 3.81899C17.773 4.07541 17.9125 4.39523 18.0255 4.76399C18.0371 4.94263 18.0371 4.94263 18.0255 5.12888C17.9357 5.28533 17.8818 5.31038 17.7501 5.33341C17.2376 5.32241 17.2376 5.32241 17.0195 5.18969C16.9851 5.16962 16.9508 5.14956 16.9154 5.12888C16.4911 4.86201 16.0248 4.39864 15.769 3.76436C15.7033 3.49858 15.6741 3.2823 15.7154 3.00038C15.9576 2.49074 16.3174 2.6667 16.6463 2.86283Z" fill="#295791"/>
<path d="M13.1422 0.0498235C14.0314 0.233064 15.0637 0.595451 15.6963 1.18856L15.6431 1.32736C14.4472 1.38187 13.1619 1.06337 12.2445 0.372415C12.1857 0.309523 12.1857 0.309523 12.1924 0.214101C12.3459 -0.0816554 12.8427 -0.0010073 13.1422 0.0498235Z" fill="#295791"/>
</svg>
