<svg width="20" height="16" viewBox="0 0 20 16" fill="none" xmlns="http://www.w3.org/2000/svg">
<path d="M11.1109 10.6736C11.4584 11.0472 11.6559 11.4083 11.6892 11.9548C11.701 12.8665 11.423 13.5557 10.8736 14.2231C9.98006 15.2542 8.70213 15.9783 7.41504 15.9993C6.60074 16.0022 6.60074 16.0022 6.20328 15.818C6.16888 15.803 6.13448 15.7881 6.09903 15.7727C5.64959 15.5501 5.30757 15.1538 5.11798 14.6432C4.97902 14.0904 5.00973 13.4156 5.23264 12.9015C5.63932 12.1124 6.1304 11.5287 6.79527 11.0069C6.83915 10.9723 6.88303 10.9376 6.92824 10.902C8.05622 10.0857 9.98501 9.62207 11.1109 10.6736ZM6.70894 5.33564C6.7825 5.33446 6.7825 5.33446 6.85755 5.33325C7.48133 5.33789 7.96337 5.52511 8.41765 6.01679C8.69683 6.36252 8.74019 6.68839 8.73118 7.1492C8.69732 7.6179 8.48662 7.91434 8.22591 8.26566C8.2006 8.30316 8.17529 8.34066 8.14921 8.37929C7.89818 8.7362 7.57591 8.97516 7.23926 9.21669C7.18578 9.25549 7.1323 9.29429 7.0772 9.33426C6.08048 10.019 4.7672 10.4912 3.59793 10.2411C3.23095 10.1294 2.89919 9.93892 2.65137 9.60829L2.54345 9.47193C2.32373 9.11966 2.31805 8.74006 2.35537 8.3216C2.48093 7.7658 2.76628 7.31146 3.15317 6.95143C3.25134 6.86272 3.25134 6.86272 3.36052 6.73072C3.44068 6.64331 3.44068 6.64331 3.53935 6.64331V6.53142C4.40931 5.70928 5.60134 5.34862 6.70894 5.33564Z" fill="#E98320"/>
<path d="M16.7857 7.65724C16.9317 7.80972 16.9317 7.80972 17.0453 7.96219L17.1783 8.1299C17.5473 8.67735 17.5652 9.23996 17.5124 9.91382C17.4326 10.5096 17.074 10.9679 16.6902 11.3432C16.2361 11.7292 15.6824 11.946 15.1248 11.9874C15.0867 11.9906 15.0485 11.9939 15.0092 11.9972C14.287 12.029 13.6254 11.7836 13.081 11.2289C12.6855 10.7867 12.4772 10.3174 12.4582 9.66986C12.4787 9.05257 12.6809 8.6267 12.9967 8.14515L13.0908 7.98125C14.0513 6.78809 15.6795 6.71832 16.7857 7.65724ZM5.75133 1.78639C5.95885 1.9799 6.02779 2.17548 6.06418 2.48085C6.01426 3.00038 5.68215 3.35382 5.35738 3.68132C4.59349 4.37875 3.68117 4.79867 2.77148 5.15672C2.73664 5.17067 2.70181 5.18463 2.66592 5.19901C2.21552 5.37367 1.78954 5.42419 1.31814 5.43117C1.26791 5.4323 1.21768 5.43344 1.16593 5.43461C0.812006 5.43089 0.514416 5.3607 0.25107 5.06629C0.0507967 4.79673 -0.00577999 4.56141 0.000454702 4.21259C0.0808417 3.5972 0.55304 3.13525 0.954812 2.77817C2.15425 1.77722 4.39635 0.702193 5.75133 1.78639ZM14.1905 3.57102C14.4987 3.8891 14.6231 4.26284 14.6804 4.73361C14.6134 5.26223 14.3365 5.57781 13.9829 5.88858C13.1822 6.51708 11.9799 6.57291 11.0568 6.37268C10.4004 6.17804 9.86744 5.81865 9.46718 5.17197C9.37599 4.82374 9.34876 4.44717 9.46089 4.1011C9.7467 3.53252 10.1835 3.13577 10.7096 2.91921C10.7701 2.89381 10.8305 2.86842 10.8927 2.84226C12.023 2.44752 13.2548 2.76475 14.1905 3.57102Z" fill="#E98320"/>
<path d="M9.31924 0.00095567C9.35134 0.00133507 9.38345 0.00171447 9.41653 0.00210537C10.1526 0.0122954 10.8919 0.143643 11.4873 0.836297C11.6256 1.04012 11.6688 1.15556 11.6897 1.44367C11.5619 1.90559 11.2796 2.08285 10.9756 2.2742C10.3298 2.60554 9.64662 2.65585 8.96662 2.66377C8.91424 2.66473 8.86186 2.66568 8.80789 2.66667C8.19477 2.66154 7.59944 2.46398 7.13596 1.84743C7.04073 1.67107 7.02504 1.52768 7.01392 1.30668C7.11071 0.908116 7.30448 0.695435 7.55969 0.501839C7.68043 0.428026 7.8021 0.368793 7.92656 0.309192C7.97423 0.28581 8.0219 0.262428 8.07101 0.238337C8.49361 0.0461487 8.87758 -0.00815485 9.31924 0.00095567Z" fill="#E98320"/>
<path d="M18.5421 5.4634C18.7623 5.64472 18.9249 5.8457 19.0965 6.13107C19.1308 6.18501 19.1651 6.23895 19.2004 6.29453C19.5461 6.86458 19.8568 7.54454 19.8721 8.36877C19.859 8.70069 19.8122 8.8661 19.6713 9.11219C19.5062 9.30869 19.3424 9.34775 19.1393 9.32907C18.8949 9.25167 18.673 9.11259 18.4549 8.92082V8.78473C18.417 8.77539 18.417 8.77539 18.3784 8.76586C18.1988 8.67248 18.0992 8.40043 17.9844 8.17235C17.9607 8.12525 17.937 8.07815 17.9125 8.02962C17.6128 7.41404 17.5291 6.88402 17.5344 6.10582C17.5578 5.84561 17.5807 5.74139 17.6956 5.55696C17.9606 5.27006 18.2504 5.28207 18.5421 5.4634Z" fill="#E98320"/>
<path d="M16.1463 2.86283C16.4664 3.0814 16.7378 3.3693 17.0038 3.73015C17.0272 3.75947 17.0506 3.78879 17.0747 3.81899C17.273 4.07541 17.4125 4.39523 17.5255 4.76399C17.5371 4.94263 17.5371 4.94263 17.5255 5.12888C17.4357 5.28533 17.3818 5.31038 17.2501 5.33341C16.7376 5.32241 16.7376 5.32241 16.5195 5.18969C16.4851 5.16962 16.4508 5.14956 16.4154 5.12888C15.9911 4.86201 15.5248 4.39864 15.269 3.76436C15.2033 3.49858 15.1741 3.2823 15.2154 3.00038C15.4576 2.49074 15.8174 2.6667 16.1463 2.86283Z" fill="#E98320"/>
<path d="M12.6422 0.0498235C13.5314 0.233064 14.5637 0.595451 15.1963 1.18856L15.1431 1.32736C13.9472 1.38187 12.6619 1.06337 11.7445 0.372415C11.6857 0.309523 11.6857 0.309523 11.6924 0.214101C11.8459 -0.0816554 12.3427 -0.0010073 12.6422 0.0498235Z" fill="#E98320"/>
</svg>
