<svg width="30" height="56" viewBox="0 0 30 56" fill="none" xmlns="http://www.w3.org/2000/svg">
<path d="M25.1731 0.0555176L4.19551 0.0305176C1.88798 0.0305176 0 2.28052 0 5.03052V50.0305C0 52.7805 1.88798 55.0305 4.19551 55.0305H25.1731C27.4806 55.0305 29.3686 52.7805 29.3686 50.0305V5.03052C29.3686 2.28052 27.4806 0.0555176 25.1731 0.0555176ZM26.6987 50.0305H14.6843H2.66987V26.2555V4.16514H14.6843H26.6987V26.2555V50.0305Z" fill="#295791"/>
<rect x="3" y="4.03052" width="24" height="46" fill="white"/>
<g clip-path="url(#clip0_195_688)">
<path d="M14.8011 27.2972C13.3004 26.9039 12.8178 26.4972 12.8178 25.8639C12.8178 25.1372 13.4855 24.6305 14.6028 24.6305C15.7796 24.6305 16.2159 25.1972 16.2556 26.0305H17.7166C17.6703 24.8839 16.9762 23.8305 15.5944 23.4905V22.0305H13.6111V23.4705C12.3286 23.7505 11.2972 24.5905 11.2972 25.8772C11.2972 27.4172 12.5599 28.1839 14.4044 28.6305C16.0572 29.0305 16.3878 29.6172 16.3878 30.2372C16.3878 30.6972 16.0638 31.4305 14.6028 31.4305C13.2409 31.4305 12.7054 30.8172 12.6327 30.0305H11.1782C11.2576 31.4905 12.3418 32.3105 13.6111 32.5839V34.0305H15.5944V32.5972C16.8836 32.3505 17.9083 31.5972 17.9083 30.2305C17.9083 28.3372 16.3018 27.6905 14.8011 27.2972Z" fill="#E98320"/>
</g>
<path d="M8 28.0305C8 24.1904 11.115 21.0305 14.9333 21.0305C18.7517 21.0305 21.8667 24.1904 21.8667 28.0305C21.8667 31.8706 18.7517 35.0305 14.9333 35.0305C11.115 35.0305 8 31.8706 8 28.0305Z" stroke="#E98320" stroke-width="2"/>
<defs>
<clipPath id="clip0_195_688">
<path d="M7 28.0305C7 23.6491 10.5519 20.0305 14.9333 20.0305C19.3148 20.0305 22.8667 23.6491 22.8667 28.0305C22.8667 32.412 19.3148 36.0305 14.9333 36.0305C10.5519 36.0305 7 32.412 7 28.0305Z" fill="white"/>
</clipPath>
</defs>
</svg>
