<svg width="31" height="56" viewBox="0 0 31 56" fill="none" xmlns="http://www.w3.org/2000/svg">
<path d="M25.9151 0.0555176L4.76129 0.0305176C2.43436 0.0305176 0.530518 2.28052 0.530518 5.03052V50.0305C0.530518 52.7805 2.43436 55.0305 4.76129 55.0305H25.9151C28.2421 55.0305 30.1459 52.7805 30.1459 50.0305V5.03052C30.1459 2.28052 28.2421 0.0555176 25.9151 0.0555176ZM27.4536 50.0305H15.3382H3.22282V26.2555V3.58822H15.3382H27.4536V26.2555V50.0305Z" fill="#295791"/>
<rect x="3.53052" y="4.03052" width="24" height="46" fill="white"/>
<path d="M18.5156 24.75C18.0625 21.9594 16.9937 20 15.75 20C14.5062 20 13.4375 21.9594 12.9844 24.75H18.5156ZM12.75 27.75C12.75 28.4438 12.7875 29.1094 12.8531 29.75H18.6438C18.7094 29.1094 18.7469 28.4438 18.7469 27.75C18.7469 27.0563 18.7094 26.3906 18.6438 25.75H12.8531C12.7875 26.3906 12.75 27.0563 12.75 27.75ZM22.8969 24.75C22.0031 22.6281 20.1938 20.9875 17.9594 20.325C18.7219 21.3812 19.2469 22.9719 19.5219 24.75H22.8969ZM13.5375 20.325C11.3062 20.9875 9.49375 22.6281 8.60312 24.75H11.9781C12.25 22.9719 12.775 21.3812 13.5375 20.325ZM23.2312 25.75H19.6469C19.7125 26.4062 19.75 27.0781 19.75 27.75C19.75 28.4219 19.7125 29.0938 19.6469 29.75H23.2281C23.4 29.1094 23.4969 28.4438 23.4969 27.75C23.4969 27.0563 23.4 26.3906 23.2312 25.75ZM11.75 27.75C11.75 27.0781 11.7875 26.4062 11.8531 25.75H8.26875C8.1 26.3906 8 27.0563 8 27.75C8 28.4438 8.1 29.1094 8.26875 29.75H11.85C11.7875 29.0938 11.75 28.4219 11.75 27.75ZM12.9844 30.75C13.4375 33.5406 14.5062 35.5 15.75 35.5C16.9937 35.5 18.0625 33.5406 18.5156 30.75H12.9844ZM17.9625 35.175C20.1937 34.5125 22.0062 32.8719 22.9 30.75H19.525C19.25 32.5281 18.725 34.1188 17.9625 35.175ZM8.60312 30.75C9.49688 32.8719 11.3063 34.5125 13.5406 35.175C12.7781 34.1188 12.2531 32.5281 11.9781 30.75H8.60312Z" fill="#E98320"/>
</svg>
