<svg width="30" height="56" viewBox="0 0 30 56" fill="none" xmlns="http://www.w3.org/2000/svg">
<path d="M25.3846 0.0555176L4.23077 0.0305176C1.90385 0.0305176 0 2.28052 0 5.03052V50.0305C0 52.7805 1.90385 55.0305 4.23077 55.0305H25.3846C27.7115 55.0305 29.6154 52.7805 29.6154 50.0305V5.03052C29.6154 2.28052 27.7115 0.0555176 25.3846 0.0555176ZM26.9231 50.0305H14.8077H2.69231V26.2555V3.58822H14.8077H27.1945V26.2555L26.9231 50.0305Z" fill="#E98320"/>
<rect x="2" y="3.38672" width="25" height="47" fill="white"/>
<path d="M13.9328 35.3243V28.4618L8.16357 24.993V31.0118C8.16357 31.2868 8.22668 31.5368 8.35288 31.7618C8.47908 31.9868 8.65636 32.168 8.88473 32.3055L13.9328 35.3243ZM15.3751 35.3243L20.4232 32.3055C20.6516 32.168 20.8288 31.9868 20.955 31.7618C21.0812 31.5368 21.1443 31.2868 21.1443 31.0118V24.993L15.3751 28.4618V35.3243ZM18.2417 25.0118L20.3691 23.718L15.3751 20.7368C15.1467 20.5993 14.9064 20.5305 14.654 20.5305C14.4016 20.5305 14.1612 20.5993 13.9328 20.7368L12.5085 21.5805L18.2417 25.0118ZM14.654 27.168L16.7994 25.893L11.0842 22.443L8.92079 23.7368L14.654 27.168Z" fill="#295791"/>
</svg>
