<svg width="30" height="56" viewBox="0 0 30 56" fill="none" xmlns="http://www.w3.org/2000/svg">
<path d="M25.1731 0.0707763L4.19551 0.0457764C1.88798 0.0457764 0 2.29578 0 5.04578V50.0458C0 52.7958 1.88798 55.0458 4.19551 55.0458H25.1731C27.4806 55.0458 29.3686 52.7958 29.3686 50.0458V5.04578C29.3686 2.29578 27.4806 0.0707763 25.1731 0.0707763ZM26.6987 50.0458H14.6843H2.66987V26.2708V4.1804H14.6843H26.6987V26.2708V50.0458Z" fill="#E98320"/>
<rect x="3" y="4.04578" width="24" height="46" fill="white"/>
<g clip-path="url(#clip0_339_688)">
<path d="M14.8011 27.3124C13.3004 26.9191 12.8178 26.5124 12.8178 25.8791C12.8178 25.1524 13.4855 24.6458 14.6028 24.6458C15.7796 24.6458 16.2159 25.2124 16.2556 26.0458H17.7166C17.6703 24.8991 16.9762 23.8458 15.5944 23.5058V22.0458H13.6111V23.4858C12.3286 23.7658 11.2972 24.6058 11.2972 25.8924C11.2972 27.4324 12.5599 28.1991 14.4044 28.6458C16.0572 29.0458 16.3878 29.6324 16.3878 30.2524C16.3878 30.7124 16.0638 31.4458 14.6028 31.4458C13.2409 31.4458 12.7054 30.8324 12.6327 30.0458H11.1782C11.2576 31.5058 12.3418 32.3258 13.6111 32.5991V34.0458H15.5944V32.6124C16.8836 32.3658 17.9083 31.6124 17.9083 30.2458C17.9083 28.3524 16.3018 27.7058 14.8011 27.3124Z" fill="#295791"/>
</g>
<path d="M8 28.0458C8 24.2057 11.115 21.0458 14.9333 21.0458C18.7517 21.0458 21.8667 24.2057 21.8667 28.0458C21.8667 31.8859 18.7517 35.0458 14.9333 35.0458C11.115 35.0458 8 31.8859 8 28.0458Z" stroke="#295791" stroke-width="2"/>
<defs>
<clipPath id="clip0_339_688">
<path d="M7 28.0458C7 23.6643 10.5519 20.0458 14.9333 20.0458C19.3148 20.0458 22.8667 23.6643 22.8667 28.0458C22.8667 32.4272 19.3148 36.0458 14.9333 36.0458C10.5519 36.0458 7 32.4272 7 28.0458Z" fill="white"/>
</clipPath>
</defs>
</svg>
