<svg width="31" height="56" viewBox="0 0 31 56" fill="none" xmlns="http://www.w3.org/2000/svg">
<path d="M25.9151 0.0707763L4.76129 0.0457764C2.43436 0.0457764 0.530518 2.29578 0.530518 5.04578V50.0458C0.530518 52.7958 2.43436 55.0458 4.76129 55.0458H25.9151C28.2421 55.0458 30.1459 52.7958 30.1459 50.0458V5.04578C30.1459 2.29578 28.2421 0.0707763 25.9151 0.0707763ZM27.4536 50.0458H15.3382H3.22282V26.2708V3.60348H15.3382H27.4536V26.2708V50.0458Z" fill="#E98320"/>
<rect x="3.53052" y="4.04578" width="24" height="46" fill="white"/>
<path d="M18.5156 24.7653C18.0625 21.9746 16.9937 20.0153 15.75 20.0153C14.5062 20.0153 13.4375 21.9746 12.9844 24.7653H18.5156ZM12.75 27.7653C12.75 28.459 12.7875 29.1246 12.8531 29.7653H18.6438C18.7094 29.1246 18.7469 28.459 18.7469 27.7653C18.7469 27.0715 18.7094 26.4059 18.6438 25.7653H12.8531C12.7875 26.4059 12.75 27.0715 12.75 27.7653ZM22.8969 24.7653C22.0031 22.6434 20.1938 21.0028 17.9594 20.3403C18.7219 21.3965 19.2469 22.9871 19.5219 24.7653H22.8969ZM13.5375 20.3403C11.3062 21.0028 9.49375 22.6434 8.60312 24.7653H11.9781C12.25 22.9871 12.775 21.3965 13.5375 20.3403ZM23.2312 25.7653H19.6469C19.7125 26.4215 19.75 27.0934 19.75 27.7653C19.75 28.4371 19.7125 29.109 19.6469 29.7653H23.2281C23.4 29.1246 23.4969 28.459 23.4969 27.7653C23.4969 27.0715 23.4 26.4059 23.2312 25.7653ZM11.75 27.7653C11.75 27.0934 11.7875 26.4215 11.8531 25.7653H8.26875C8.1 26.4059 8 27.0715 8 27.7653C8 28.459 8.1 29.1246 8.26875 29.7653H11.85C11.7875 29.109 11.75 28.4371 11.75 27.7653ZM12.9844 30.7653C13.4375 33.5559 14.5062 35.5153 15.75 35.5153C16.9937 35.5153 18.0625 33.5559 18.5156 30.7653H12.9844ZM17.9625 35.1903C20.1937 34.5278 22.0062 32.8871 22.9 30.7653H19.525C19.25 32.5434 18.725 34.134 17.9625 35.1903ZM8.60312 30.7653C9.49688 32.8871 11.3063 34.5278 13.5406 35.1903C12.7781 34.134 12.2531 32.5434 11.9781 30.7653H8.60312Z" fill="#295791"/>
</svg>
