<svg width="30" height="56" viewBox="0 0 30 56" fill="none" xmlns="http://www.w3.org/2000/svg">
<path d="M25.3846 0.0707763L4.23077 0.0457764C1.90385 0.0457764 0 2.29578 0 5.04578V50.0458C0 52.7958 1.90385 55.0458 4.23077 55.0458H25.3846C27.7115 55.0458 29.6154 52.7958 29.6154 50.0458V5.04578C29.6154 2.29578 27.7115 0.0707763 25.3846 0.0707763ZM26.9231 50.0458H14.8077H2.69231V26.2708V3.60348H14.8077H27.1945V26.2708L26.9231 50.0458Z" fill="#E98320"/>
<rect x="2" y="3.40198" width="25" height="47" fill="white"/>
<path d="M13.9328 35.3395V28.477L8.16357 25.0083V31.027C8.16357 31.302 8.22668 31.552 8.35288 31.777C8.47908 32.002 8.65636 32.1833 8.88473 32.3208L13.9328 35.3395ZM15.3751 35.3395L20.4232 32.3208C20.6516 32.1833 20.8288 32.002 20.955 31.777C21.0812 31.552 21.1443 31.302 21.1443 31.027V25.0083L15.3751 28.477V35.3395ZM18.2417 25.027L20.3691 23.7333L15.3751 20.752C15.1467 20.6145 14.9064 20.5458 14.654 20.5458C14.4016 20.5458 14.1612 20.6145 13.9328 20.752L12.5085 21.5958L18.2417 25.027ZM14.654 27.1833L16.7994 25.9083L11.0842 22.4583L8.92079 23.752L14.654 27.1833Z" fill="#295791"/>
</svg>
