<svg width="25" height="29" viewBox="0 0 25 29" fill="none" xmlns="http://www.w3.org/2000/svg">
<path d="M0 6.03003C0 3.82089 1.79086 2.03003 4 2.03003H7.2C9.40914 2.03003 11.2 3.82089 11.2 6.03003V13.39C11.2 15.5992 9.40914 17.39 7.2 17.39H4C1.79086 17.39 0 15.5992 0 13.39V6.03003Z" fill="#FDF8F9"/>
<path d="M19 10L25 14.5L19 19L18 18L21.5 15.5H13.5V13.5H21.5L18 11L19 10ZM2.5 0.7625L15 0.75C16.375 0.75 17.5 1.875 17.5 3.25V8.25H16V6L8.5 6L1.5 6V23.5L8.5 23.5L16 23.5V20.75H17.5V25.75C17.5 27.125 16.375 28.25 15 28.25H2.5C1.125 28.25 0 27.125 0 25.75V3.25C0 1.875 1.125 0.7625 2.5 0.7625Z" fill="#E87400"/>
<path d="M10.5723 12.625C10.2891 10.8809 9.62109 9.65625 8.84375 9.65625C8.06641 9.65625 7.39844 10.8809 7.11523 12.625H10.5723ZM6.96875 14.5C6.96875 14.9336 6.99219 15.3496 7.0332 15.75H10.6523C10.6934 15.3496 10.7168 14.9336 10.7168 14.5C10.7168 14.0664 10.6934 13.6504 10.6523 13.25H7.0332C6.99219 13.6504 6.96875 14.0664 6.96875 14.5ZM13.3105 12.625C12.752 11.2988 11.6211 10.2734 10.2246 9.85937C10.7012 10.5195 11.0293 11.5137 11.2012 12.625H13.3105ZM7.46094 9.85937C6.06641 10.2734 4.93359 11.2988 4.37695 12.625H6.48633C6.65625 11.5137 6.98437 10.5195 7.46094 9.85937ZM13.5195 13.25H11.2793C11.3203 13.6602 11.3437 14.0801 11.3437 14.5C11.3437 14.9199 11.3203 15.3398 11.2793 15.75H13.5176C13.625 15.3496 13.6855 14.9336 13.6855 14.5C13.6855 14.0664 13.625 13.6504 13.5195 13.25ZM6.34375 14.5C6.34375 14.0801 6.36719 13.6602 6.4082 13.25H4.16797C4.0625 13.6504 4 14.0664 4 14.5C4 14.9336 4.0625 15.3496 4.16797 15.75H6.40625C6.36719 15.3398 6.34375 14.9199 6.34375 14.5ZM7.11523 16.375C7.39844 18.1191 8.06641 19.3437 8.84375 19.3437C9.62109 19.3437 10.2891 18.1191 10.5723 16.375H7.11523ZM10.2266 19.1406C11.6211 18.7266 12.7539 17.7012 13.3125 16.375H11.2031C11.0312 17.4863 10.7031 18.4805 10.2266 19.1406ZM4.37695 16.375C4.93555 17.7012 6.06641 18.7266 7.46289 19.1406C6.98633 18.4805 6.6582 17.4863 6.48633 16.375H4.37695Z" fill="#295791"/>
</svg>
