<svg width="17" height="22" viewBox="0 0 17 22" fill="none" xmlns="http://www.w3.org/2000/svg">
<path d="M12.5 16H14V20C14 21.1 13.1 22 12 22H2C0.9 22 0 21.1 0 20V2C0 0.9 0.9 0.00999999 2 0.00999999L12 0C13.1 0 14 0.9 14 2V6H12.5V3H1.5V19.5H7H12.5V16ZM17 11L13 7V10H9.5V12H13V15L17 11Z" fill="white"/>
<path d="M8.42851 9.45161C8.1946 8.01129 7.64287 7 7.00081 7C6.35874 7 5.80702 8.01129 5.5731 9.45161H8.42851ZM5.45211 11C5.45211 11.3581 5.47147 11.7016 5.50534 12.0323H8.49466C8.52853 11.7016 8.54789 11.3581 8.54789 11C8.54789 10.6419 8.52853 10.2984 8.49466 9.96774H5.50534C5.47147 10.2984 5.45211 10.6419 5.45211 11ZM10.6903 9.45161C10.2289 8.35645 9.29482 7.50968 8.14136 7.16774C8.53499 7.7129 8.80601 8.53387 8.94797 9.45161H10.6903ZM5.85864 7.16774C4.7068 7.50968 3.77112 8.35645 3.31135 9.45161H5.05364C5.19399 8.53387 5.46501 7.7129 5.85864 7.16774ZM10.8629 9.96774H9.0125C9.04638 10.3065 9.06574 10.6532 9.06574 11C9.06574 11.3468 9.04638 11.6935 9.0125 12.0323H10.8613C10.95 11.7016 11 11.3581 11 11C11 10.6419 10.95 10.2984 10.8629 9.96774ZM4.93587 11C4.93587 10.6532 4.95523 10.3065 4.98911 9.96774H3.13874C3.05162 10.2984 3 10.6419 3 11C3 11.3581 3.05162 11.7016 3.13874 12.0323H4.9875C4.95523 11.6935 4.93587 11.3468 4.93587 11ZM5.5731 12.5484C5.80702 13.9887 6.35874 15 7.00081 15C7.64287 15 8.1946 13.9887 8.42851 12.5484H5.5731ZM8.14297 14.8323C9.29482 14.4903 10.2305 13.6435 10.6919 12.5484H8.94959C8.80762 13.4661 8.5366 14.2871 8.14297 14.8323ZM3.31135 12.5484C3.77274 13.6435 4.7068 14.4903 5.86025 14.8323C5.46663 14.2871 5.1956 13.4661 5.05364 12.5484H3.31135Z" fill="white"/>
</svg>
