<svg width="22" height="28" viewBox="0 0 22 28" fill="none" xmlns="http://www.w3.org/2000/svg">
<path d="M16.5002 9.06097L21.5002 14.061L16.5002 19.061L14.7377 17.2985L16.7127 15.311H10.2502V12.811H16.7127L14.7252 10.8235L16.5002 9.06097ZM2.75024 0.323474L15.2502 0.310974C16.6252 0.310974 17.7502 1.43597 17.7502 2.81097V7.81097H15.2502V6.56097H2.75024V21.561H15.2502V20.311H17.7502V25.311C17.7502 26.686 16.6252 27.811 15.2502 27.811H2.75024C1.37524 27.811 0.250244 26.686 0.250244 25.311V2.81097C0.250244 1.43597 1.37524 0.323474 2.75024 0.323474ZM2.75024 25.311H15.2502V24.061H2.75024V25.311ZM2.75024 4.06097H15.2502V2.81097H2.75024V4.06097Z" fill="#295791"/>
</svg>
